<svg width="136" height="161" viewBox="0 0 136 161" fill="none" xmlns="http://www.w3.org/2000/svg">
<path d="M52 48C52 56.1057 50.0977 62.8047 46.5 70C44.4382 74.1236 44 76.1055 44 80.6667C44 89.1743 45.3718 96.0693 49.5 103.5C50.9264 106.068 45.1982 100.607 44.5556 100C41.3475 96.9701 35.0965 97.4056 32.7778 93C31.3556 90.2979 31 83.5127 31 89.5556C31 96.1852 31 102.815 31 109.444C31 120.28 44.3516 121.463 50.9444 128.056C59.2173 136.328 45.3935 137.95 40 134.778C35.7812 132.296 36.142 136.37 37.5 140.444C38.7857 144.302 39.6966 148.715 44.1667 150.056C54.1175 153.041 63.7406 157.563 74.4444 157C86.7808 156.351 91.2574 143.987 97 135.222C98.9166 132.297 102.745 131.448 105 128.778C108.498 124.636 110.431 119.434 112.5 114.5C115.866 106.473 117 98.676 117 90C117 89.7406 115.951 79.3745 113.944 83.7222C109.854 92.5847 104.914 98.9138 96.5 103.444C95.1181 104.189 86.3799 105.08 85.2222 103.778C83.9882 102.389 92.8999 83.3257 93 80.2222C93.2505 72.4562 89.9731 69.0842 84.5556 63.6667C82.1284 61.2395 83 68.8791 83 69.5556C83 76.7665 82.234 82.9797 78.5556 89.3333C74.5111 96.3192 66.3259 85.393 65.2222 80.7778C62.7128 70.2838 66.7839 66.1767 73.3889 58.5556C76.1951 55.3176 75.8617 49.5437 73 47C71.235 45.4311 67 40.5141 67 43C67 47.199 68.6569 65 62.5 65C55.6208 65 54 57.7701 54 52C54 47.0292 56.1987 32.2554 56 37.2222C55.7581 43.2708 52 48.8976 52 55" stroke="#A76161" stroke-opacity="0.91" stroke-width="3" stroke-linecap="round"/>
<path d="M52 77C52 84.7423 51.8961 90.5897 55 97.7778C57.1783 102.822 60.7918 107.225 63 112.222C65.4924 117.863 68.8848 122.176 60.7778 122C55.2702 121.88 50.1943 119.877 45.9444 116.444C45.8999 116.408 39.1111 111.055 39.1111 112.5C39.1111 116.646 57.2058 119.764 60.5 122.056C64.0298 124.511 74.4745 132.235 69.5 136.444C66.2432 139.2 61.2395 139.895 57.5556 142C55.7284 143.044 60.7652 143.99 61.2222 144C66.5085 144.115 74.7297 145.609 79.5556 143C83.4087 140.917 86.1779 134.439 87.9444 130.611C89.0048 128.314 91.0969 127.064 92 124.556C93.5653 120.208 95.7514 116.163 97.5 111.889C98.3864 109.722 101.526 104.459 97.5556 106.444C93.1277 108.658 80.3429 113.473 77.7778 105.778C76.2862 101.303 77.7258 104.163 75.4444 106.444C73.5692 108.32 71.1805 108.498 69.5 106.444C64.6556 100.524 57 91.4716 57 83.5C57 79.9416 56.6935 78.4081 55 75.4444C54.2532 74.1375 54.8789 80 51 80" stroke="#F0A764" stroke-opacity="0.91" stroke-width="3" stroke-linecap="round"/>
<path d="M70 122C72.5651 122.285 73.8002 125 76.7778 125C78.6937 125 78.3419 120.058 77.9444 118.667C77.1023 115.719 76.3941 124.62 76.0556 127.667C75.985 128.301 78 123.089 78 121.222C78 117.669 77.9439 121.374 78 122.778C78.1468 126.448 82.4426 120.557 82.9444 120.056C84.6353 118.365 86.6954 117.022 88.5556 115.5C90.1207 114.219 93.387 111.076 91 114.222C85.931 120.904 79.0231 126.424 74.5556 133.444C72.3249 136.95 73.0302 140.237 69 140C67.4384 139.908 65.4741 141.041 66 140.778C71.1563 138.2 76.825 135.115 81.6111 131.833C90.7153 125.59 94.4294 120.141 99 111" stroke="#F0A764" stroke-opacity="0.91" stroke-width="16" stroke-linecap="round"/>
<path d="M80 120C78.1249 122.083 73.6669 127.749 73.0556 130.5C72.2214 134.254 69.8938 135.65 67.7778 139C67.3567 139.667 65.5727 140.38 66.2222 139C67.9739 135.278 72.7341 131.678 75.5556 129C82.9217 122.008 89.3633 114.64 96 107.056C97.4332 105.418 103.504 101.599 101.778 106.778C99.598 113.317 96.7558 121.8 91.7778 126.778C85.402 133.154 77.9187 138.16 72.0556 145C68.9305 148.646 68.7104 145.749 70.2222 142.333C72.2004 137.864 75.0673 134.585 77.8333 130.667C79.5365 128.254 75.6249 132.931 75.3333 133.222C71.2112 137.344 66.539 142.746 67.0556 134.222C67.301 130.173 67.896 126.554 69.7778 123C70.5119 121.613 68.6481 125.657 68.3889 126.056C64.6861 131.752 62.9896 133.236 65.2222 125.556C65.9758 122.963 69.4586 115.901 67.3333 113.389C64.7517 110.338 61.4404 108.06 58.6667 105.222C57.0497 103.568 52.8599 90.7218 55.6667 97.6111C58.631 104.887 64.5503 111.405 68.7778 118C69.1531 118.586 74.4395 125.728 73.9444 123.5C72.6798 117.809 68.0797 111.327 65.6111 106.222C63.3425 101.531 61.6527 95.8556 58 92C57.3216 91.284 53.6238 84.8047 54.0556 87.6111C54.7366 92.038 58.0201 96.341 59.8889 100.333C63.0367 107.058 66.8018 113.619 72 119C73.7668 120.829 76.8528 124.356 79.5 124.944C82.0571 125.513 81.1087 120.083 81.2222 118.778C81.5272 115.27 81.7377 111.603 82.7778 108.222C83.3961 106.213 81.1381 112.668 80.8889 113.222C80.3746 114.365 76.4656 125.694 75.2222 125.556C74.6062 125.487 75 115.697 75 114.833C75 111.111 75 107.389 75 103.667C75 102.112 75.9655 106.668 76 108.222C76.0547 110.685 76 118.074 76 115.611C76 102.73 80.7166 88.6402 84.2222 76.3333C85.0682 73.3635 89 57.3347 89 68C89 71.9296 88.6087 78.6262 86.5 82C83.9488 86.0819 83.8207 94.4249 82.7778 99.2222C81.7432 103.981 81 107.015 81 112C81 117.388 79.91 119.898 85 115.444C89.8789 111.175 92.9788 104.666 96 99.0555C98.4668 94.4743 102.813 91.2804 105.222 86.5555C105.451 86.1073 109.438 78.8185 109.889 79.8333C111.31 83.0306 110.033 89.781 110 93.2222C109.807 113.129 104.22 134.579 86.2222 145.778C75.5491 152.419 59.2002 154.836 47.2222 150.444C41.2798 148.266 40.0124 143.1 37.4444 137.889C35.6475 134.242 34.5662 130.521 33.5 126.611C32.2028 121.855 32.4947 124.184 34.4444 127C40.5193 135.775 63.2223 149.612 60.9444 129.111C60.1068 121.572 47.8912 116.839 42.6667 113.222C38.9003 110.615 31.3064 107.57 30.2222 102.556C28.8488 96.2036 29.5964 87.5387 30.0556 81.1111C30.2027 79.0505 30.6603 76.7051 31 74.6667C31.5136 71.5853 31.8572 80.8717 32.6667 83.8889C35.7906 95.5327 40.7747 107.535 51.1111 114.556C54.1793 116.64 63.569 120.625 67 117.556C73.287 111.93 62.7651 102.381 59.6667 98.1667C54.9295 91.7241 48.6192 85.3435 48.0556 76.8889C47.4617 67.9817 48.0164 59.3718 53 51.7778C55.8229 47.4762 61 43.749 61 38.3333C61 31.5556 61 11.2222 61 18C61 25.1186 60.8757 32.1766 60.2222 39.2778C58.4024 59.0532 53.2134 79.1498 53 99C52.9723 101.58 53.3843 111.163 58.5 108.889C62.1961 107.246 62.5955 97.8732 63.5556 94.4444C67.4554 80.5163 68.0516 66.6649 70.2222 52.5556C70.587 50.1843 70.064 41.682 71.5556 47.2222C73.1603 53.1827 73.8983 59.0677 74.2222 65.2222C74.6234 72.845 76.402 81.9493 74.4444 89.5C72.424 97.2932 71.4711 105.375 69.2222 113.111C68.698 114.914 67.8749 120.417 65.5 120.944C64.0762 121.261 63.9015 121.641 63.2222 123C61.3236 126.797 61.534 129.294 56.9444 130C55.3571 130.244 45.2324 133.169 47.0556 128.611C47.2657 128.086 50.1102 131.11 50.4444 131.444C51.9685 132.969 53.8729 134.26 56 134.778C62.1727 136.279 67.5963 130.523 72 127" stroke="#F0A764" stroke-width="16" stroke-linecap="round"/>
<path d="M71 100C71 87.5168 80.1511 77.2649 85.7778 66.4444C87.5115 63.1104 90.2557 60.51 92.2222 57.3333C94.6958 53.3376 95.2911 49.2723 97 45" stroke="#F0A764" stroke-width="16" stroke-linecap="round"/>
<path d="M66 6C66 15.2222 66 24.4444 66 33.6667C66 37.2963 66 44.5556 66 44.5556C66 44.5556 65.0896 37.5714 64.4444 34.1111C63.0516 26.6404 61.2084 19.1043 60.0556 11.6111C59.8625 10.3564 60.8741 8.5535 60.8333 8.77778C59.2685 17.3845 50 24.5307 50 33.2222C50 46.8223 47.0463 61.9629 54.5 73.8889C57.1724 78.1648 45.7194 69.2958 44.5556 68.3333C36.7172 61.8517 34.8879 55.5639 32.5 46.2778C31.0522 40.6475 29.6649 34.5669 29.0556 28.7778C28.7717 26.0811 28 26.0471 28 29.1111C28 45.9742 31.2631 61.3552 35.5556 77.6667C37.133 83.6608 42.1847 86.3226 47.1111 89.5556C52.5728 93.1398 60.674 100.56 67.8889 98.5556C82.092 94.6102 96.3722 81.3446 101.222 67.3333C103.359 61.1607 105.116 54.7602 106.778 48.4444C107.451 45.888 105.767 50.8569 105.5 51.4444C104.218 54.2648 104.212 59.2096 104.056 62.3333C103.584 71.7729 104 81.3274 104 90.7778C104 91.956 103.047 99.8318 104 100C107.754 100.663 112.636 100.012 116.056 98.4444C123.432 95.0638 126.571 86.4932 128.444 79C128.933 77.0451 129.127 62.0734 129 67.6667C128.645 83.2859 121.895 102.211 115 116C111.827 122.345 105.795 126.647 100.556 131.222C96.9663 134.356 93.5653 137.764 89.1111 139.611C74.3111 145.748 56.4404 149.161 41.3333 142.389C29.2892 136.99 11.5826 124.664 8.22222 111.222C5.21963 99.2119 6.60832 84.8439 8 72.6667C8.78202 65.824 9.12934 73.3476 9.55555 75.7222C11.2413 85.114 12.9661 94.9716 16.7778 103.778C22.0861 116.042 31.4547 121.206 44.2222 121C47.0881 120.954 48.167 120.838 48 118C47.8949 116.212 40.6663 114.419 39.1111 113.5C35.6535 111.457 32.5133 108.687 29.1111 106.5C25.4023 104.116 23.8341 93.985 23 90C22.6499 88.3274 21 81.2502 21 87C21 94.4985 22.8655 101.961 23.9444 109.333C25.3306 118.806 32.7038 122.704 39 129C40.4115 130.412 42.2248 131.815 43.3889 133.444C45.986 137.08 34.8897 130.682 30.6667 129.222C27.1925 128.021 20.7026 127.544 18 125C16.3337 123.432 22.6999 129.258 23.6111 130C29.9858 135.194 35.3986 141.599 42 146" stroke="#F0A764" stroke-width="12" stroke-linecap="round"/>
<path d="M16 113C16 116.627 17.4943 117.939 19.7778 120.222C24.0385 124.483 16.7705 123 14 123" stroke="#F0A764" stroke-width="12" stroke-linecap="round"/>
<path d="M59 57C59 68.6093 56.5339 83.7213 59.5556 94.9444C60.3367 97.8459 65.4832 107.091 59.6667 101.722C52.855 95.4345 46.3757 89.779 42 81.4444C41.2359 79.9891 41.3722 77.784 40.2222 76.7778C34.251 71.553 48.2049 90.516 52.7778 97C54.1282 98.9147 64.4778 110.31 60.1111 109C53.26 106.945 45.1084 108 38 108C33.7705 108 31.9742 106.284 28.4444 105C26.9006 104.439 25.2597 102.111 23.5556 102.111C20.6107 102.111 26.777 108.777 26.9444 108.944C31.7109 113.711 37.0406 117.903 41.5 122.944C45.9214 127.943 52.5768 129.706 58.4444 132.444C66.9083 136.394 78.4028 129.594 84.6667 124.556C92.7016 118.093 95.5028 110.977 99.7778 102C101.094 99.2358 101 96.6644 101 93.6667C101 91.8559 99.5652 89.2265 98.2222 92.2222C95.0097 99.3886 82.1781 119.992 71.2222 115.778C64.83 113.319 92.1845 79.3662 92.9444 73.6667C93.6079 68.6911 83.8092 81.1994 82.6111 82.4444C79.2902 85.8956 75.0916 89.6632 72.1111 93.3889C70.6828 95.1743 66.5516 94.3791 66.0556 96.6111C64.8014 102.255 66.0851 109.889 58.1667 109.889C53.0171 109.889 52.4439 103.2 50.2222 99.4444C47.6556 95.1057 44.8753 90.1141 40.7778 87C38.7019 85.4223 37 79.707 37 77C37 74.0236 38.3831 82.8199 39.5556 85.5556C43.3226 94.3454 49.8888 101.878 57.3333 107.833C61.8341 111.434 60.8421 108.486 61.0556 104.111C61.4725 95.5631 64 87.0894 64 78.5556C64 74.0549 64.2495 69.4912 64 65C63.799 61.3815 61 57.9018 61 54C61 51.9788 61.5075 41.8948 60.2222 48C58.5477 55.9539 59.2192 64.9352 58 73.1111C56.891 80.5478 57 87.9522 57 95.4444C57 105.239 64.9916 102.903 71.3333 104.056C74.4638 104.625 68.6737 107.925 68.4444 108.056C64.8126 110.131 60.2509 113.472 56 113.944C52.7206 114.309 50.1174 112.321 47.0556 111.556C43.0369 110.551 52.4359 118.951 52.5 119C56.2812 121.861 58.5666 124 63.3333 124C64.6667 124 60.6667 124 59.3333 124C58.4402 124 53.622 123.362 53.1667 124.5C52.9111 125.139 72.8289 127.632 74.4444 127.778C79.5577 128.238 81.0554 127.033 76 128.222C70.4955 129.517 75.6539 130.153 76 126C76.5875 118.95 78.0808 111.975 79.2222 105C79.4729 103.468 80 95.5054 80 97.4444C80 101.33 77.4601 108.27 74 110" stroke="#BD3517" stroke-width="12" stroke-linecap="round"/>
<path d="M61 123C68.1912 123 61.2095 130.562 61 127C60.9321 125.845 62.9071 122.514 63 124C63.0365 124.583 63 128.3 63 127" stroke="#BD3517" stroke-width="12" stroke-linecap="round"/>
</svg>
